<?xml version="1.0" standalone="no"?>
<!DOCTYPE svg PUBLIC "-//W3C//DTD SVG 20010904//EN"
 "http://www.w3.org/TR/2001/REC-SVG-20010904/DTD/svg10.dtd">
<svg version="1.0" xmlns="http://www.w3.org/2000/svg"
 width="225.000000pt" height="225.000000pt" viewBox="0 0 225.000000 225.000000"
 preserveAspectRatio="xMidYMid meet">
<metadata>
Created by potrace 1.16, written by Peter Selinger 2001-2019
</metadata>
<g transform="translate(0.000000,225.000000) scale(0.100000,-0.100000)"
fill="#000000" stroke="none">
<path d="M1100 1793 c-88 -29 -90 -35 -90 -345 0 -288 1 -292 60 -323 43 -22
518 -22 560 0 57 29 60 48 60 333 0 359 16 342 -342 341 -128 0 -240 -3 -248
-6z"/>
<path d="M783 1553 c-36 -7 -73 -59 -73 -102 0 -31 -8 -46 -41 -81 -23 -24
-56 -73 -73 -109 -28 -60 -31 -75 -31 -161 1 -89 4 -103 49 -220 51 -133 51
-140 30 -287 -5 -38 -3 -46 24 -73 35 -35 80 -40 139 -15 34 15 36 14 68 -14
19 -16 47 -32 64 -36 73 -16 161 52 161 124 l0 39 103 39 c56 22 146 57 200
78 110 42 137 67 137 125 0 29 -7 44 -27 61 -60 53 -131 125 -141 144 -8 15
-14 17 -22 9 -23 -23 18 -74 143 -179 24 -21 21 -60 -6 -82 -13 -10 -186 -80
-385 -157 -378 -145 -399 -150 -423 -105 -8 16 -8 33 2 68 23 80 15 144 -36
280 -25 68 -49 145 -52 171 -11 97 38 223 113 289 40 35 42 40 37 78 -4 33 -1
45 16 62 36 36 92 26 117 -21 13 -25 20 -29 52 -26 43 4 52 31 12 36 -14 2
-38 16 -55 32 -31 29 -65 40 -102 33z"/>
</g>
</svg>
